<svg version="1.1" viewBox="0.0 0.0 960.0 540.0" fill="none" stroke="none" stroke-linecap="square" stroke-miterlimit="10" xmlns:xlink="http://www.w3.org/1999/xlink" xmlns="http://www.w3.org/2000/svg"><clipPath id="g8ff4aecdaa_2_75.0"><path d="m0 0l960.0 0l0 540.0l-960.0 0l0 -540.0z" clip-rule="nonzero"/></clipPath><g clip-path="url(#g8ff4aecdaa_2_75.0)"><path fill="#ffffff" d="m0 0l960.0 0l0 540.0l-960.0 0z" fill-rule="evenodd"/><path fill="#0432ff" d="m86.08693 59.478268l0 0c0 -3.0255623 2.4527054 -5.4782677 5.4782715 -5.4782677l0 0c1.4529266 0 2.846344 0.5771713 3.8737183 1.6045456c1.0273743 1.0273781 1.6045456 2.4207954 1.6045456 3.873722l0 0c0 3.0255623 -2.4527054 5.4782677 -5.478264 5.4782677l0 0c-3.025566 0 -5.4782715 -2.4527054 -5.4782715 -5.4782677z" fill-rule="evenodd"/><path fill="#0432ff" d="m112.173935 59.478268l0 0c0 -3.0255623 2.4527054 -5.4782677 5.4782715 -5.4782677l0 0c1.4529266 0 2.846344 0.5771713 3.8737183 1.6045456c1.0273743 1.0273781 1.6045456 2.4207954 1.6045456 3.873722l0 0c0 3.0255623 -2.4527054 5.4782677 -5.478264 5.4782677l0 0c-3.025566 0 -5.4782715 -2.4527054 -5.4782715 -5.4782677z" fill-rule="evenodd"/><path fill="#0432ff" d="m138.26096 59.478268l0 0c0 -3.0255623 2.4526978 -5.4782677 5.478256 -5.4782677l0 0c1.4529266 0 2.846344 0.5771713 3.8737183 1.6045456c1.0273743 1.0273781 1.6045532 2.4207954 1.6045532 3.873722l0 0c0 3.0255623 -2.4526978 5.4782677 -5.4782715 5.4782677l0 0c-3.0255585 0 -5.478256 -2.4527054 -5.478256 -5.4782677z" fill-rule="evenodd"/><path fill="#0432ff" d="m164.34795 59.478268l0 0c0 -3.0255623 2.452713 -5.4782677 5.4782715 -5.4782677l0 0c1.4529266 0 2.846344 0.5771713 3.8737183 1.6045456c1.0273743 1.0273781 1.6045532 2.4207954 1.6045532 3.873722l0 0c0 3.0255623 -2.452713 5.4782677 -5.4782715 5.4782677l0 0c-3.0255585 0 -5.4782715 -2.4527054 -5.4782715 -5.4782677z" fill-rule="evenodd"/><path fill="#0432ff" d="m190.43497 59.478268l0 0c0 -3.0255623 2.4526978 -5.4782677 5.478256 -5.4782677l0 0c1.4529266 0 2.8463593 0.5771713 3.8737335 1.6045456c1.0273743 1.0273781 1.604538 2.4207954 1.604538 3.873722l0 0c0 3.0255623 -2.4526978 5.4782677 -5.4782715 5.4782677l0 0c-3.0255585 0 -5.478256 -2.4527054 -5.478256 -5.4782677z" fill-rule="evenodd"/><path fill="#0432ff" d="m216.52196 59.478268l0 0c0 -3.0255623 2.452713 -5.4782677 5.4782715 -5.4782677l0 0c1.4529266 0 2.846344 0.5771713 3.8737183 1.6045456c1.0273743 1.0273781 1.6045532 2.4207954 1.6045532 3.873722l0 0c0 3.0255623 -2.452713 5.4782677 -5.4782715 5.4782677l0 0c-3.0255585 0 -5.4782715 -2.4527054 -5.4782715 -5.4782677z" fill-rule="evenodd"/><path fill="#0432ff" d="m242.60898 59.478268l0 0c0 -3.0255623 2.4526978 -5.4782677 5.4782715 -5.4782677l0 0c1.4529266 0 2.846344 0.5771713 3.8737183 1.6045456c1.0273743 1.0273781 1.604538 2.4207954 1.604538 3.873722l0 0c0 3.0255623 -2.4526978 5.4782677 -5.478256 5.4782677l0 0c-3.0255737 0 -5.4782715 -2.4527054 -5.4782715 -5.4782677z" fill-rule="evenodd"/><path fill="#0432ff" d="m268.69598 59.478268l0 0c0 -3.0255623 2.4526978 -5.4782677 5.4782715 -5.4782677l0 0c1.4529419 0 2.846344 0.5771713 3.8737183 1.6045456c1.0273743 1.0273781 1.6045532 2.4207954 1.6045532 3.873722l0 0c0 3.0255623 -2.4526978 5.4782677 -5.4782715 5.4782677l0 0c-3.0255737 0 -5.4782715 -2.4527054 -5.4782715 -5.4782677z" fill-rule="evenodd"/><path fill="#0432ff" d="m294.783 59.478268l0 0c0 -3.0255623 2.4527283 -5.4782677 5.4782715 -5.4782677l0 0c1.4529419 0 2.846344 0.5771713 3.8737183 1.6045456c1.0273743 1.0273781 1.6045532 2.4207954 1.6045532 3.873722l0 0c0 3.0255623 -2.4526978 5.4782677 -5.4782715 5.4782677l0 0c-3.0255432 0 -5.4782715 -2.4527054 -5.4782715 -5.4782677z" fill-rule="evenodd"/><path fill="#0432ff" d="m320.87 59.478268l0 0c0 -3.0255623 2.4526978 -5.4782677 5.4782715 -5.4782677l0 0c1.4529114 0 2.846344 0.5771713 3.8737183 1.6045456c1.0273743 1.0273781 1.6045227 2.4207954 1.6045227 3.873722l0 0c0 3.0255623 -2.4526978 5.4782677 -5.478241 5.4782677l0 0c-3.0255737 0 -5.4782715 -2.4527054 -5.4782715 -5.4782677z" fill-rule="evenodd"/><path fill="#0432ff" d="m346.957 59.478268l0 0c0 -3.0255623 2.4526978 -5.4782677 5.4782715 -5.4782677l0 0c1.4529114 0 2.846344 0.5771713 3.8737183 1.6045456c1.0273743 1.0273781 1.6045532 2.4207954 1.6045532 3.873722l0 0c0 3.0255623 -2.4526978 5.4782677 -5.4782715 5.4782677l0 0c-3.0255737 0 -5.4782715 -2.4527054 -5.4782715 -5.4782677z" fill-rule="evenodd"/><path fill="#0432ff" d="m373.044 59.478268l0 0c0 -3.0255623 2.4526978 -5.4782677 5.4782715 -5.4782677l0 0c1.4529419 0 2.846344 0.5771713 3.8737183 1.6045456c1.0273743 1.0273781 1.6045532 2.4207954 1.6045532 3.873722l0 0c0 3.0255623 -2.4526978 5.4782677 -5.4782715 5.4782677l0 0c-3.0255737 0 -5.4782715 -2.4527054 -5.4782715 -5.4782677z" fill-rule="evenodd"/><path fill="#ff0000" d="m86.08693 87.91307l0 0c0 -3.025566 2.4527054 -5.4782715 5.4782715 -5.4782715l0 0c1.4529266 0 2.846344 0.5771713 3.8737183 1.6045456c1.0273743 1.0273819 1.6045456 2.4207993 1.6045456 3.873726l0 0c0 3.0255585 -2.4527054 5.478264 -5.478264 5.478264l0 0c-3.025566 0 -5.4782715 -2.4527054 -5.4782715 -5.478264z" fill-rule="evenodd"/><path fill="#ff0000" d="m112.173935 87.91307l0 0c0 -3.025566 2.4527054 -5.4782715 5.4782715 -5.4782715l0 0c1.4529266 0 2.846344 0.5771713 3.8737183 1.6045456c1.0273743 1.0273819 1.6045456 2.4207993 1.6045456 3.873726l0 0c0 3.0255585 -2.4527054 5.478264 -5.478264 5.478264l0 0c-3.025566 0 -5.4782715 -2.4527054 -5.4782715 -5.478264z" fill-rule="evenodd"/><path fill="#ff0000" d="m138.26096 87.91307l0 0c0 -3.025566 2.4526978 -5.4782715 5.478256 -5.4782715l0 0c1.4529266 0 2.846344 0.5771713 3.8737183 1.6045456c1.0273743 1.0273819 1.6045532 2.4207993 1.6045532 3.873726l0 0c0 3.0255585 -2.4526978 5.478264 -5.4782715 5.478264l0 0c-3.0255585 0 -5.478256 -2.4527054 -5.478256 -5.478264z" fill-rule="evenodd"/><path fill="#ff0000" d="m164.34795 87.91307l0 0c0 -3.025566 2.452713 -5.4782715 5.4782715 -5.4782715l0 0c1.4529266 0 2.846344 0.5771713 3.8737183 1.6045456c1.0273743 1.0273819 1.6045532 2.4207993 1.6045532 3.873726l0 0c0 3.0255585 -2.452713 5.478264 -5.4782715 5.478264l0 0c-3.0255585 0 -5.4782715 -2.4527054 -5.4782715 -5.478264z" fill-rule="evenodd"/><path fill="#ff0000" d="m190.43497 87.91307l0 0c0 -3.025566 2.4526978 -5.4782715 5.478256 -5.4782715l0 0c1.4529266 0 2.8463593 0.5771713 3.8737335 1.6045456c1.0273743 1.0273819 1.604538 2.4207993 1.604538 3.873726l0 0c0 3.0255585 -2.4526978 5.478264 -5.4782715 5.478264l0 0c-3.0255585 0 -5.478256 -2.4527054 -5.478256 -5.478264z" fill-rule="evenodd"/><path fill="#ff0000" d="m216.52196 87.91307l0 0c0 -3.025566 2.452713 -5.4782715 5.4782715 -5.4782715l0 0c1.4529266 0 2.846344 0.5771713 3.8737183 1.6045456c1.0273743 1.0273819 1.6045532 2.4207993 1.6045532 3.873726l0 0c0 3.0255585 -2.452713 5.478264 -5.4782715 5.478264l0 0c-3.0255585 0 -5.4782715 -2.4527054 -5.4782715 -5.478264z" fill-rule="evenodd"/><path fill="#ff0000" d="m242.60898 87.91307l0 0c0 -3.025566 2.4526978 -5.4782715 5.4782715 -5.4782715l0 0c1.4529266 0 2.846344 0.5771713 3.8737183 1.6045456c1.0273743 1.0273819 1.604538 2.4207993 1.604538 3.873726l0 0c0 3.0255585 -2.4526978 5.478264 -5.478256 5.478264l0 0c-3.0255737 0 -5.4782715 -2.4527054 -5.4782715 -5.478264z" fill-rule="evenodd"/><path fill="#ff0000" d="m268.69598 87.91307l0 0c0 -3.025566 2.4526978 -5.4782715 5.4782715 -5.4782715l0 0c1.4529419 0 2.846344 0.5771713 3.8737183 1.6045456c1.0273743 1.0273819 1.6045532 2.4207993 1.6045532 3.873726l0 0c0 3.0255585 -2.4526978 5.478264 -5.4782715 5.478264l0 0c-3.0255737 0 -5.4782715 -2.4527054 -5.4782715 -5.478264z" fill-rule="evenodd"/><path fill="#ff0000" d="m294.783 87.91307l0 0c0 -3.025566 2.4527283 -5.4782715 5.4782715 -5.4782715l0 0c1.4529419 0 2.846344 0.5771713 3.8737183 1.6045456c1.0273743 1.0273819 1.6045532 2.4207993 1.6045532 3.873726l0 0c0 3.0255585 -2.4526978 5.478264 -5.4782715 5.478264l0 0c-3.0255432 0 -5.4782715 -2.4527054 -5.4782715 -5.478264z" fill-rule="evenodd"/><path fill="#ff0000" d="m320.87 87.91307l0 0c0 -3.025566 2.4526978 -5.4782715 5.4782715 -5.4782715l0 0c1.4529114 0 2.846344 0.5771713 3.8737183 1.6045456c1.0273743 1.0273819 1.6045227 2.4207993 1.6045227 3.873726l0 0c0 3.0255585 -2.4526978 5.478264 -5.478241 5.478264l0 0c-3.0255737 0 -5.4782715 -2.4527054 -5.4782715 -5.478264z" fill-rule="evenodd"/><path fill="#ff0000" d="m346.957 87.91307l0 0c0 -3.025566 2.4526978 -5.4782715 5.4782715 -5.4782715l0 0c1.4529114 0 2.846344 0.5771713 3.8737183 1.6045456c1.0273743 1.0273819 1.6045532 2.4207993 1.6045532 3.873726l0 0c0 3.0255585 -2.4526978 5.478264 -5.4782715 5.478264l0 0c-3.0255737 0 -5.4782715 -2.4527054 -5.4782715 -5.478264z" fill-rule="evenodd"/><path fill="#ff0000" d="m425.21805 87.91307l0 0c0 -3.025566 2.4526978 -5.4782715 5.4782715 -5.4782715l0 0c1.4529114 0 2.846344 0.5771713 3.8737183 1.6045456c1.0273743 1.0273819 1.6045532 2.4207993 1.6045532 3.873726l0 0c0 3.0255585 -2.4527283 5.478264 -5.4782715 5.478264l0 0c-3.0255737 0 -5.4782715 -2.4527054 -5.4782715 -5.478264z" fill-rule="evenodd"/><path fill="#00b050" d="m86.08693 116.34788l0 0c0 -3.025566 2.4527054 -5.4782715 5.4782715 -5.4782715l0 0c1.4529266 0 2.846344 0.57717896 3.8737183 1.6045532c1.0273743 1.0273743 1.6045456 2.4207916 1.6045456 3.8737183l0 0c0 3.025566 -2.4527054 5.478264 -5.478264 5.478264l0 0c-3.025566 0 -5.4782715 -2.4526978 -5.4782715 -5.478264z" fill-rule="evenodd"/><path fill="#00b050" d="m112.173935 116.34788l0 0c0 -3.025566 2.4527054 -5.4782715 5.4782715 -5.4782715l0 0c1.4529266 0 2.846344 0.57717896 3.8737183 1.6045532c1.0273743 1.0273743 1.6045456 2.4207916 1.6045456 3.8737183l0 0c0 3.025566 -2.4527054 5.478264 -5.478264 5.478264l0 0c-3.025566 0 -5.4782715 -2.4526978 -5.4782715 -5.478264z" fill-rule="evenodd"/><path fill="#00b050" d="m138.26096 116.34788l0 0c0 -3.025566 2.4526978 -5.4782715 5.478256 -5.4782715l0 0c1.4529266 0 2.846344 0.57717896 3.8737183 1.6045532c1.0273743 1.0273743 1.6045532 2.4207916 1.6045532 3.8737183l0 0c0 3.025566 -2.4526978 5.478264 -5.4782715 5.478264l0 0c-3.0255585 0 -5.478256 -2.4526978 -5.478256 -5.478264z" fill-rule="evenodd"/><path fill="#00b050" d="m164.34795 116.34788l0 0c0 -3.025566 2.452713 -5.4782715 5.4782715 -5.4782715l0 0c1.4529266 0 2.846344 0.57717896 3.8737183 1.6045532c1.0273743 1.0273743 1.6045532 2.4207916 1.6045532 3.8737183l0 0c0 3.025566 -2.452713 5.478264 -5.4782715 5.478264l0 0c-3.0255585 0 -5.4782715 -2.4526978 -5.4782715 -5.478264z" fill-rule="evenodd"/><path fill="#00b050" d="m190.43497 116.34788l0 0c0 -3.025566 2.4526978 -5.4782715 5.478256 -5.4782715l0 0c1.4529266 0 2.8463593 0.57717896 3.8737335 1.6045532c1.0273743 1.0273743 1.604538 2.4207916 1.604538 3.8737183l0 0c0 3.025566 -2.4526978 5.478264 -5.4782715 5.478264l0 0c-3.0255585 0 -5.478256 -2.4526978 -5.478256 -5.478264z" fill-rule="evenodd"/><path fill="#00b050" d="m216.52196 116.34788l0 0c0 -3.025566 2.452713 -5.4782715 5.4782715 -5.4782715l0 0c1.4529266 0 2.846344 0.57717896 3.8737183 1.6045532c1.0273743 1.0273743 1.6045532 2.4207916 1.6045532 3.8737183l0 0c0 3.025566 -2.452713 5.478264 -5.4782715 5.478264l0 0c-3.0255585 0 -5.4782715 -2.4526978 -5.4782715 -5.478264z" fill-rule="evenodd"/><path fill="#00b050" d="m242.60898 116.34788l0 0c0 -3.025566 2.4526978 -5.4782715 5.4782715 -5.4782715l0 0c1.4529266 0 2.846344 0.57717896 3.8737183 1.6045532c1.0273743 1.0273743 1.604538 2.4207916 1.604538 3.8737183l0 0c0 3.025566 -2.4526978 5.478264 -5.478256 5.478264l0 0c-3.0255737 0 -5.4782715 -2.4526978 -5.4782715 -5.478264z" fill-rule="evenodd"/><path fill="#00b050" d="m268.69598 116.34788l0 0c0 -3.025566 2.4526978 -5.4782715 5.4782715 -5.4782715l0 0c1.4529419 0 2.846344 0.57717896 3.8737183 1.6045532c1.0273743 1.0273743 1.6045532 2.4207916 1.6045532 3.8737183l0 0c0 3.025566 -2.4526978 5.478264 -5.4782715 5.478264l0 0c-3.0255737 0 -5.4782715 -2.4526978 -5.4782715 -5.478264z" fill-rule="evenodd"/><path fill="#00b050" d="m294.783 116.34788l0 0c0 -3.025566 2.4527283 -5.4782715 5.4782715 -5.4782715l0 0c1.4529419 0 2.846344 0.57717896 3.8737183 1.6045532c1.0273743 1.0273743 1.6045532 2.4207916 1.6045532 3.8737183l0 0c0 3.025566 -2.4526978 5.478264 -5.4782715 5.478264l0 0c-3.0255432 0 -5.4782715 -2.4526978 -5.4782715 -5.478264z" fill-rule="evenodd"/><path fill="#02af50" d="m320.87 116.34788l0 0c0 -3.025566 2.4526978 -5.4782715 5.4782715 -5.4782715l0 0c1.4529114 0 2.846344 0.57717896 3.8737183 1.6045532c1.0273743 1.0273743 1.6045227 2.4207916 1.6045227 3.8737183l0 0c0 3.025566 -2.4526978 5.478264 -5.478241 5.478264l0 0c-3.0255737 0 -5.4782715 -2.4526978 -5.4782715 -5.478264z" fill-rule="evenodd"/><path fill="#02af50" d="m399.13104 116.34788l0 0c0 -3.025566 2.4526978 -5.4782715 5.478241 -5.4782715l0 0c1.4529419 0 2.846344 0.57717896 3.8737183 1.6045532c1.0273743 1.0273743 1.6045532 2.4207916 1.6045532 3.8737183l0 0c0 3.025566 -2.4526978 5.478264 -5.4782715 5.478264l0 0c-3.0255432 0 -5.478241 -2.4526978 -5.478241 -5.478264z" fill-rule="evenodd"/><path fill="#02af50" d="m425.21805 116.34788l0 0c0 -3.025566 2.4526978 -5.4782715 5.4782715 -5.4782715l0 0c1.4529114 0 2.846344 0.57717896 3.8737183 1.6045532c1.0273743 1.0273743 1.6045532 2.4207916 1.6045532 3.8737183l0 0c0 3.025566 -2.4527283 5.478264 -5.4782715 5.478264l0 0c-3.0255737 0 -5.4782715 -2.4526978 -5.4782715 -5.478264z" fill-rule="evenodd"/><path fill="#000000" fill-opacity="0.0" d="m222.00023 64.956535l-26.078735 17.480316" fill-rule="evenodd"/><path stroke="#000000" stroke-width="1.0" stroke-miterlimit="800.0" stroke-linecap="butt" d="m222.00023 64.956535l-21.094803 14.139618" fill-rule="evenodd"/><path fill="#000000" stroke="#000000" stroke-width="1.0" stroke-linecap="butt" d="m199.98578 77.72413l-2.849945 3.898758l4.6892548 -1.1547012z" fill-rule="evenodd"/><path fill="#000000" fill-opacity="0.0" d="m222.00023 64.956535l0 17.480316" fill-rule="evenodd"/><path stroke="#000000" stroke-width="1.0" stroke-miterlimit="800.0" stroke-linecap="butt" d="m222.00023 64.956535l0 11.480316" fill-rule="evenodd"/><path fill="#000000" stroke="#000000" stroke-width="1.0" stroke-linecap="butt" d="m220.3485 76.43685l1.6517334 4.5380936l1.6517334 -4.5380936z" fill-rule="evenodd"/><path fill="#000000" fill-opacity="0.0" d="m222.00023 64.956535l26.078735 17.480316" fill-rule="evenodd"/><path stroke="#000000" stroke-width="1.0" stroke-miterlimit="800.0" stroke-linecap="butt" d="m222.00023 64.956535l21.094788 14.139618" fill-rule="evenodd"/><path fill="#000000" stroke="#000000" stroke-width="1.0" stroke-linecap="butt" d="m242.17535 80.468185l4.68927 1.1547012l-2.8499603 -3.898758z" fill-rule="evenodd"/><path fill="#000000" fill-opacity="0.0" d="m222.00023 93.391335l-26.078735 17.480316" fill-rule="evenodd"/><path stroke="#000000" stroke-width="1.0" stroke-miterlimit="800.0" stroke-linecap="butt" d="m222.00023 93.391335l-21.094803 14.139618" fill-rule="evenodd"/><path fill="#000000" stroke="#000000" stroke-width="1.0" stroke-linecap="butt" d="m199.98578 106.15893l-2.849945 3.898758l4.6892548 -1.1547012z" fill-rule="evenodd"/><path fill="#000000" fill-opacity="0.0" d="m222.00023 93.391335l0 17.480316" fill-rule="evenodd"/><path stroke="#000000" stroke-width="1.0" stroke-miterlimit="800.0" stroke-linecap="butt" d="m222.00023 93.391335l0 11.480316" fill-rule="evenodd"/><path fill="#000000" stroke="#000000" stroke-width="1.0" stroke-linecap="butt" d="m220.3485 104.87165l1.6517334 4.5380936l1.6517334 -4.5380936z" fill-rule="evenodd"/><path fill="#000000" fill-opacity="0.0" d="m222.00023 93.391335l26.078735 17.480316" fill-rule="evenodd"/><path stroke="#000000" stroke-width="1.0" stroke-miterlimit="800.0" stroke-linecap="butt" d="m222.00023 93.391335l21.094788 14.139618" fill-rule="evenodd"/><path fill="#000000" stroke="#000000" stroke-width="1.0" stroke-linecap="butt" d="m242.17535 108.902985l4.68927 1.1547012l-2.8499603 -3.898758z" fill-rule="evenodd"/><path fill="#0432ff" d="m399.13104 59.478268l0 0c0 -3.0255623 2.4526978 -5.4782677 5.478241 -5.4782677l0 0c1.4529419 0 2.846344 0.5771713 3.8737183 1.6045456c1.0273743 1.0273781 1.6045532 2.4207954 1.6045532 3.873722l0 0c0 3.0255623 -2.4526978 5.4782677 -5.4782715 5.4782677l0 0c-3.0255432 0 -5.478241 -2.4527054 -5.478241 -5.4782677z" fill-rule="evenodd"/><path fill="#0432ff" d="m425.21805 59.478268l0 0c0 -3.0255623 2.4526978 -5.4782677 5.4782715 -5.4782677l0 0c1.4529114 0 2.846344 0.5771713 3.8737183 1.6045456c1.0273743 1.0273781 1.6045532 2.4207954 1.6045532 3.873722l0 0c0 3.0255623 -2.4527283 5.4782677 -5.4782715 5.4782677l0 0c-3.0255737 0 -5.4782715 -2.4527054 -5.4782715 -5.4782677z" fill-rule="evenodd"/><path fill="#ff0000" d="m373.044 87.91307l0 0c0 -3.025566 2.4526978 -5.4782715 5.4782715 -5.4782715l0 0c1.4529419 0 2.846344 0.5771713 3.8737183 1.6045456c1.0273743 1.0273819 1.6045532 2.4207993 1.6045532 3.873726l0 0c0 3.0255585 -2.4526978 5.478264 -5.4782715 5.478264l0 0c-3.0255737 0 -5.4782715 -2.4527054 -5.4782715 -5.478264z" fill-rule="evenodd"/><path fill="#ff0000" d="m399.13104 87.91307l0 0c0 -3.025566 2.4526978 -5.4782715 5.478241 -5.4782715l0 0c1.4529419 0 2.846344 0.5771713 3.8737183 1.6045456c1.0273743 1.0273819 1.6045532 2.4207993 1.6045532 3.873726l0 0c0 3.0255585 -2.4526978 5.478264 -5.4782715 5.478264l0 0c-3.0255432 0 -5.478241 -2.4527054 -5.478241 -5.478264z" fill-rule="evenodd"/><path fill="#00b050" d="m346.957 116.34788l0 0c0 -3.025566 2.4526978 -5.4782715 5.4782715 -5.4782715l0 0c1.4529114 0 2.846344 0.57717896 3.8737183 1.6045532c1.0273743 1.0273743 1.6045532 2.4207916 1.6045532 3.8737183l0 0c0 3.025566 -2.4526978 5.478264 -5.4782715 5.478264l0 0c-3.0255737 0 -5.4782715 -2.4526978 -5.4782715 -5.478264z" fill-rule="evenodd"/><path fill="#02af50" d="m373.044 116.34788l0 0c0 -3.025566 2.4526978 -5.4782715 5.4782715 -5.4782715l0 0c1.4529419 0 2.846344 0.57717896 3.8737183 1.6045532c1.0273743 1.0273743 1.6045532 2.4207916 1.6045532 3.8737183l0 0c0 3.025566 -2.4526978 5.478264 -5.4782715 5.478264l0 0c-3.0255737 0 -5.4782715 -2.4526978 -5.4782715 -5.478264z" fill-rule="evenodd"/></g></svg>